<mxfile host="Electron" agent="Mozilla/5.0 (X11; Linux x86_64) AppleWebKit/537.36 (KHTML, like Gecko) draw.io/26.0.4 Chrome/128.0.6613.186 Electron/32.2.5 Safari/537.36" version="26.0.4">
  <diagram name="Page-1" id="-U0Rklenv92W4N0o3Wsz">
    <mxGraphModel dx="744" dy="452" grid="1" gridSize="5" guides="1" tooltips="1" connect="1" arrows="1" fold="1" page="1" pageScale="1" pageWidth="460" pageHeight="360" math="0" shadow="0">
      <root>
        <mxCell id="0" />
        <mxCell id="1" parent="0" />
        <mxCell id="egLtp0v95tjPZCbAkyWe-24" value="" style="rounded=0;whiteSpace=wrap;html=1;fontStyle=1;fontSize=10;fillColor=none;strokeWidth=3;" vertex="1" parent="1">
          <mxGeometry x="5" y="5" width="330" height="350" as="geometry" />
        </mxCell>
        <mxCell id="egLtp0v95tjPZCbAkyWe-17" value="" style="rounded=0;whiteSpace=wrap;html=1;fillColor=#f8cecc;strokeColor=#b85450;" vertex="1" parent="1">
          <mxGeometry x="230" y="95" width="100" height="100" as="geometry" />
        </mxCell>
        <mxCell id="6zYA0gsVQUk156yb2ZYi-1" value="Arduino Mega&lt;div&gt;2560 (ÂµC)&lt;/div&gt;" style="rounded=0;whiteSpace=wrap;html=1;fontStyle=1;fontSize=10;fillColor=#f5f5f5;fontColor=#333333;strokeColor=#666666;" parent="1" vertex="1">
          <mxGeometry x="235" y="148" width="90" height="42" as="geometry" />
        </mxCell>
        <mxCell id="egLtp0v95tjPZCbAkyWe-13" style="edgeStyle=orthogonalEdgeStyle;rounded=0;orthogonalLoop=1;jettySize=auto;html=1;exitX=1;exitY=0.5;exitDx=0;exitDy=0;entryX=0.75;entryY=0;entryDx=0;entryDy=0;endArrow=none;endFill=0;" edge="1" parent="1" source="6zYA0gsVQUk156yb2ZYi-2" target="egLtp0v95tjPZCbAkyWe-17">
          <mxGeometry relative="1" as="geometry">
            <mxPoint x="295" y="70" as="targetPoint" />
          </mxGeometry>
        </mxCell>
        <mxCell id="6zYA0gsVQUk156yb2ZYi-2" value="Driver MD10C&lt;div&gt;R3 (&lt;span style=&quot;background-color: transparent; color: light-dark(rgb(0, 0, 0), rgb(255, 255, 255));&quot;&gt;FL)&lt;/span&gt;&lt;/div&gt;" style="rounded=0;whiteSpace=wrap;html=1;fontSize=10;fontStyle=1;fillColor=#fff2cc;strokeColor=#d6b656;" parent="1" vertex="1">
          <mxGeometry x="130" y="10" width="60" height="60" as="geometry" />
        </mxCell>
        <mxCell id="egLtp0v95tjPZCbAkyWe-9" style="edgeStyle=orthogonalEdgeStyle;rounded=0;orthogonalLoop=1;jettySize=auto;html=1;exitX=0.5;exitY=1;exitDx=0;exitDy=0;exitPerimeter=0;entryX=0;entryY=0.5;entryDx=0;entryDy=0;endArrow=none;endFill=0;" edge="1" parent="1" source="egLtp0v95tjPZCbAkyWe-1" target="6zYA0gsVQUk156yb2ZYi-2">
          <mxGeometry relative="1" as="geometry" />
        </mxCell>
        <mxCell id="egLtp0v95tjPZCbAkyWe-12" style="edgeStyle=orthogonalEdgeStyle;rounded=0;orthogonalLoop=1;jettySize=auto;html=1;exitX=0.145;exitY=1;exitDx=0;exitDy=-4.35;exitPerimeter=0;entryX=0.25;entryY=0;entryDx=0;entryDy=0;endArrow=none;endFill=0;" edge="1" parent="1" source="egLtp0v95tjPZCbAkyWe-1" target="egLtp0v95tjPZCbAkyWe-17">
          <mxGeometry relative="1" as="geometry">
            <mxPoint x="225" y="75" as="targetPoint" />
            <Array as="points">
              <mxPoint x="86" y="75" />
              <mxPoint x="255" y="75" />
            </Array>
          </mxGeometry>
        </mxCell>
        <mxCell id="egLtp0v95tjPZCbAkyWe-1" value="Motor&lt;div&gt;(FL&lt;span style=&quot;background-color: transparent; color: light-dark(rgb(0, 0, 0), rgb(255, 255, 255));&quot;&gt;)&lt;/span&gt;&lt;/div&gt;" style="shape=cylinder3;whiteSpace=wrap;html=1;boundedLbl=1;backgroundOutline=1;size=15;rotation=-90;textDirection=vertical-rl;fontStyle=1;spacing=0;align=center;fillColor=#f5f5f5;fontColor=#333333;strokeColor=#666666;" vertex="1" parent="1">
          <mxGeometry x="25" width="50" height="80" as="geometry" />
        </mxCell>
        <mxCell id="egLtp0v95tjPZCbAkyWe-8" style="edgeStyle=orthogonalEdgeStyle;rounded=0;orthogonalLoop=1;jettySize=auto;html=1;exitX=0.5;exitY=1;exitDx=0;exitDy=0;exitPerimeter=0;entryX=0;entryY=0.5;entryDx=0;entryDy=0;endArrow=none;endFill=0;" edge="1" parent="1" source="egLtp0v95tjPZCbAkyWe-2" target="egLtp0v95tjPZCbAkyWe-5">
          <mxGeometry relative="1" as="geometry" />
        </mxCell>
        <mxCell id="egLtp0v95tjPZCbAkyWe-14" style="edgeStyle=orthogonalEdgeStyle;rounded=0;orthogonalLoop=1;jettySize=auto;html=1;exitX=0.145;exitY=1;exitDx=0;exitDy=-4.35;exitPerimeter=0;entryX=0;entryY=0.5;entryDx=0;entryDy=0;endArrow=none;endFill=0;" edge="1" parent="1" source="egLtp0v95tjPZCbAkyWe-2" target="egLtp0v95tjPZCbAkyWe-17">
          <mxGeometry relative="1" as="geometry">
            <mxPoint x="225" y="145" as="targetPoint" />
            <Array as="points">
              <mxPoint x="86" y="145" />
            </Array>
          </mxGeometry>
        </mxCell>
        <mxCell id="egLtp0v95tjPZCbAkyWe-2" value="MOT&lt;div&gt;(FR&lt;span style=&quot;background-color: transparent; color: light-dark(rgb(0, 0, 0), rgb(255, 255, 255));&quot;&gt;)&lt;/span&gt;&lt;/div&gt;" style="shape=cylinder3;whiteSpace=wrap;html=1;boundedLbl=1;backgroundOutline=1;size=15;rotation=-90;textDirection=vertical-rl;fontStyle=1;spacing=0;align=center;fillColor=#f5f5f5;fontColor=#333333;strokeColor=#666666;" vertex="1" parent="1">
          <mxGeometry x="25" y="70" width="50" height="80" as="geometry" />
        </mxCell>
        <mxCell id="egLtp0v95tjPZCbAkyWe-10" style="edgeStyle=orthogonalEdgeStyle;rounded=0;orthogonalLoop=1;jettySize=auto;html=1;exitX=0.5;exitY=1;exitDx=0;exitDy=0;exitPerimeter=0;entryX=0;entryY=0.5;entryDx=0;entryDy=0;endArrow=none;endFill=0;" edge="1" parent="1" source="egLtp0v95tjPZCbAkyWe-3" target="egLtp0v95tjPZCbAkyWe-6">
          <mxGeometry relative="1" as="geometry" />
        </mxCell>
        <mxCell id="egLtp0v95tjPZCbAkyWe-19" style="edgeStyle=orthogonalEdgeStyle;rounded=0;orthogonalLoop=1;jettySize=auto;html=1;exitX=0.145;exitY=1;exitDx=0;exitDy=-4.35;exitPerimeter=0;entryX=0.25;entryY=1;entryDx=0;entryDy=0;endArrow=none;endFill=0;" edge="1" parent="1" source="egLtp0v95tjPZCbAkyWe-3" target="egLtp0v95tjPZCbAkyWe-17">
          <mxGeometry relative="1" as="geometry">
            <Array as="points">
              <mxPoint x="86" y="215" />
              <mxPoint x="255" y="215" />
            </Array>
          </mxGeometry>
        </mxCell>
        <mxCell id="egLtp0v95tjPZCbAkyWe-3" value="MOT&lt;div&gt;(BL&lt;span style=&quot;background-color: transparent; color: light-dark(rgb(0, 0, 0), rgb(255, 255, 255));&quot;&gt;)&lt;/span&gt;&lt;/div&gt;" style="shape=cylinder3;whiteSpace=wrap;html=1;boundedLbl=1;backgroundOutline=1;size=15;rotation=-90;textDirection=vertical-rl;fontStyle=1;spacing=0;align=center;fillColor=#f5f5f5;fontColor=#333333;strokeColor=#666666;" vertex="1" parent="1">
          <mxGeometry x="25" y="140" width="50" height="80" as="geometry" />
        </mxCell>
        <mxCell id="egLtp0v95tjPZCbAkyWe-11" style="edgeStyle=orthogonalEdgeStyle;rounded=0;orthogonalLoop=1;jettySize=auto;html=1;exitX=0.5;exitY=1;exitDx=0;exitDy=0;exitPerimeter=0;entryX=0;entryY=0.5;entryDx=0;entryDy=0;endArrow=none;endFill=0;" edge="1" parent="1" source="egLtp0v95tjPZCbAkyWe-4" target="egLtp0v95tjPZCbAkyWe-7">
          <mxGeometry relative="1" as="geometry" />
        </mxCell>
        <mxCell id="egLtp0v95tjPZCbAkyWe-21" style="edgeStyle=orthogonalEdgeStyle;rounded=0;orthogonalLoop=1;jettySize=auto;html=1;exitX=0.145;exitY=1;exitDx=0;exitDy=-4.35;exitPerimeter=0;entryX=0.75;entryY=1;entryDx=0;entryDy=0;endArrow=none;endFill=0;" edge="1" parent="1" source="egLtp0v95tjPZCbAkyWe-4" target="egLtp0v95tjPZCbAkyWe-17">
          <mxGeometry relative="1" as="geometry">
            <Array as="points">
              <mxPoint x="86" y="285" />
              <mxPoint x="305" y="285" />
            </Array>
          </mxGeometry>
        </mxCell>
        <mxCell id="egLtp0v95tjPZCbAkyWe-4" value="MOT&lt;div&gt;(BR&lt;span style=&quot;background-color: transparent; color: light-dark(rgb(0, 0, 0), rgb(255, 255, 255));&quot;&gt;)&lt;/span&gt;&lt;/div&gt;" style="shape=cylinder3;whiteSpace=wrap;html=1;boundedLbl=1;backgroundOutline=1;size=15;rotation=-90;textDirection=vertical-rl;fontStyle=1;spacing=0;align=center;fillColor=#f5f5f5;fontColor=#333333;strokeColor=#666666;" vertex="1" parent="1">
          <mxGeometry x="25" y="210" width="50" height="80" as="geometry" />
        </mxCell>
        <mxCell id="egLtp0v95tjPZCbAkyWe-15" style="edgeStyle=orthogonalEdgeStyle;rounded=0;orthogonalLoop=1;jettySize=auto;html=1;exitX=1;exitY=0.5;exitDx=0;exitDy=0;entryX=0.001;entryY=0.15;entryDx=0;entryDy=0;entryPerimeter=0;endArrow=none;endFill=0;" edge="1" parent="1" source="egLtp0v95tjPZCbAkyWe-5" target="egLtp0v95tjPZCbAkyWe-17">
          <mxGeometry relative="1" as="geometry">
            <mxPoint x="225" y="110" as="targetPoint" />
            <Array as="points" />
          </mxGeometry>
        </mxCell>
        <mxCell id="egLtp0v95tjPZCbAkyWe-5" value="Driver MD10C&lt;div&gt;R3 (&lt;span style=&quot;background-color: transparent; color: light-dark(rgb(0, 0, 0), rgb(255, 255, 255));&quot;&gt;FR)&lt;/span&gt;&lt;/div&gt;" style="rounded=0;whiteSpace=wrap;html=1;fontSize=10;fontStyle=1;fillColor=#fff2cc;strokeColor=#d6b656;" vertex="1" parent="1">
          <mxGeometry x="130" y="80" width="60" height="60" as="geometry" />
        </mxCell>
        <mxCell id="egLtp0v95tjPZCbAkyWe-18" style="edgeStyle=orthogonalEdgeStyle;rounded=0;orthogonalLoop=1;jettySize=auto;html=1;exitX=1;exitY=0.5;exitDx=0;exitDy=0;entryX=0.001;entryY=0.85;entryDx=0;entryDy=0;entryPerimeter=0;endArrow=none;endFill=0;" edge="1" parent="1" source="egLtp0v95tjPZCbAkyWe-6" target="egLtp0v95tjPZCbAkyWe-17">
          <mxGeometry relative="1" as="geometry">
            <mxPoint x="225" y="180.07692307692304" as="targetPoint" />
          </mxGeometry>
        </mxCell>
        <mxCell id="egLtp0v95tjPZCbAkyWe-6" value="Driver MD10C&lt;div&gt;R3 (BL&lt;span style=&quot;background-color: transparent; color: light-dark(rgb(0, 0, 0), rgb(255, 255, 255));&quot;&gt;)&lt;/span&gt;&lt;/div&gt;" style="rounded=0;whiteSpace=wrap;html=1;fontSize=10;fontStyle=1;fillColor=#fff2cc;strokeColor=#d6b656;" vertex="1" parent="1">
          <mxGeometry x="130" y="150" width="60" height="60" as="geometry" />
        </mxCell>
        <mxCell id="egLtp0v95tjPZCbAkyWe-20" style="edgeStyle=orthogonalEdgeStyle;rounded=0;orthogonalLoop=1;jettySize=auto;html=1;exitX=1;exitY=0.5;exitDx=0;exitDy=0;entryX=0.5;entryY=1;entryDx=0;entryDy=0;endArrow=none;endFill=0;" edge="1" parent="1" source="egLtp0v95tjPZCbAkyWe-7" target="egLtp0v95tjPZCbAkyWe-17">
          <mxGeometry relative="1" as="geometry" />
        </mxCell>
        <mxCell id="egLtp0v95tjPZCbAkyWe-7" value="Driver MD10C&lt;div&gt;R3 (B&lt;span style=&quot;background-color: transparent; color: light-dark(rgb(0, 0, 0), rgb(255, 255, 255));&quot;&gt;R)&lt;/span&gt;&lt;/div&gt;" style="rounded=0;whiteSpace=wrap;html=1;fontSize=10;fontStyle=1;fillColor=#fff2cc;strokeColor=#d6b656;" vertex="1" parent="1">
          <mxGeometry x="130" y="220" width="60" height="60" as="geometry" />
        </mxCell>
        <mxCell id="egLtp0v95tjPZCbAkyWe-16" value="Arduino Mega&lt;div&gt;Proto Shield&lt;/div&gt;" style="rounded=0;whiteSpace=wrap;html=1;fontStyle=1;fontSize=10;fillColor=#f5f5f5;fontColor=#333333;strokeColor=#666666;" vertex="1" parent="1">
          <mxGeometry x="235" y="100" width="90" height="42" as="geometry" />
        </mxCell>
        <mxCell id="egLtp0v95tjPZCbAkyWe-23" value="Battery Management System (BMS)" style="rounded=0;whiteSpace=wrap;html=1;fontStyle=1;fontSize=10;fillColor=#d5e8d4;strokeColor=#82b366;" vertex="1" parent="1">
          <mxGeometry x="175" y="290" width="100" height="60" as="geometry" />
        </mxCell>
        <mxCell id="egLtp0v95tjPZCbAkyWe-26" style="edgeStyle=orthogonalEdgeStyle;rounded=0;orthogonalLoop=1;jettySize=auto;html=1;exitX=0;exitY=0.5;exitDx=0;exitDy=0;entryX=1;entryY=0.5;entryDx=0;entryDy=0;endArrow=none;endFill=0;" edge="1" parent="1" source="egLtp0v95tjPZCbAkyWe-25" target="egLtp0v95tjPZCbAkyWe-24">
          <mxGeometry relative="1" as="geometry" />
        </mxCell>
        <mxCell id="egLtp0v95tjPZCbAkyWe-25" value="LiPo 3S Battery" style="rounded=0;whiteSpace=wrap;html=1;fontStyle=1;fontSize=10;fillColor=#ffe6cc;strokeColor=#d79b00;" vertex="1" parent="1">
          <mxGeometry x="355" y="150" width="100" height="60" as="geometry" />
        </mxCell>
        <mxCell id="egLtp0v95tjPZCbAkyWe-27" value="DC/DC Buck-Boost Converter" style="rounded=0;whiteSpace=wrap;html=1;fontStyle=1;fontSize=10;fillColor=#d5e8d4;strokeColor=#82b366;" vertex="1" parent="1">
          <mxGeometry x="65" y="290" width="100" height="60" as="geometry" />
        </mxCell>
      </root>
    </mxGraphModel>
  </diagram>
</mxfile>
